<?xml version="1.0" encoding="utf-8"?>
<!-- Generator: Adobe Illustrator 24.1.3, SVG Export Plug-In . SVG Version: 6.00 Build 0)  -->
<svg version="1.1" id="Camada_1" xmlns="http://www.w3.org/2000/svg" xmlns:xlink="http://www.w3.org/1999/xlink" x="0px" y="0px"
	 viewBox="0 0 105 28" style="enable-background:new 0 0 105 28;" xml:space="preserve">
<style type="text/css">
	.st0{fill:#E00C19;}
	.st1{fill:#BC1824;}
	.st2{fill:#E20613;}
</style>
<g>
	<g>
		<rect x="25.92" y="14.66" class="st0" width="6.8" height="7.11"/>
	</g>
	<rect x="38.6" y="0.76" class="st0" width="6.8" height="21.02"/>
	<path class="st0" d="M19.59,10.48v11.29l-6.78,0V10.7c0-0.07,0-0.14,0-0.2c-0.01-0.43-0.05-0.82-0.13-1.16
		C12.3,8.16,11.21,7.3,9.92,7.28c-1.31,0.09-2.24,0.8-2.7,1.99c-0.12,0.3-0.2,0.64-0.26,1c-0.02,0.11-0.03,0.23-0.04,0.35
		c-0.02,0.2-0.03,0.41-0.03,0.63v10.52H0.12V10.48c0-3.56,1.93-6.68,4.78-8.37c1.45-0.86,3.14-1.36,4.95-1.36
		c1.54,0,2.99,0.36,4.29,0.99C17.36,3.33,19.59,6.65,19.59,10.48z"/>
	<path class="st0" d="M78.62,0.75c-1.81,0-3.5,0.5-4.95,1.36c-2.86,1.69-4.78,4.81-4.78,8.37v11.29h6.78V11.25
		c0-0.22,0.01-0.43,0.03-0.63c0.01-0.12,0.03-0.24,0.04-0.35c0.05-0.36,0.14-0.7,0.26-1c0.45-1.17,1.35-1.87,2.63-1.98L78.62,0.75
		C78.62,0.75,78.62,0.75,78.62,0.75z"/>
	<g>
		<path class="st0" d="M90.37,0.75c-5.81,0-10.51,4.7-10.51,10.51c0,5.81,4.7,10.51,10.51,10.51c5.8,0,10.51-4.7,10.51-10.51
			C100.88,5.45,96.17,0.75,90.37,0.75z M90.37,15.23c-2.2,0-3.98-1.78-3.98-3.98c0-2.19,1.78-3.98,3.98-3.98
			c2.19,0,3.98,1.78,3.98,3.98C94.35,13.45,92.56,15.23,90.37,15.23z"/>
		<g>
			<path class="st1" d="M94.35,11.26c0,4.4,2.7,8.16,6.53,9.73c1.23,0.5,2.57,0.78,3.98,0.78h0.03v-6.53h-0.03
				c-2.2,0-3.98-1.78-3.98-3.98H94.35z"/>
		</g>
	</g>
	<g>
		<path class="st0" d="M57.14,0.76c-5.81,0-10.51,4.7-10.51,10.51c0,5.81,4.7,10.51,10.51,10.51c5.8,0,10.51-4.7,10.51-10.51
			C67.65,5.46,62.95,0.76,57.14,0.76z M57.14,15.24c-2.2,0-3.98-1.78-3.98-3.98c0-2.19,1.78-3.98,3.98-3.98
			c2.19,0,3.98,1.78,3.98,3.98C61.12,13.46,59.34,15.24,57.14,15.24z"/>
		<path class="st2" d="M57.14,23.97c1.52,0,2.96-0.35,4.25-0.97l-4.25,4.25L52.89,23C54.17,23.62,55.62,23.97,57.14,23.97z"/>
	</g>
	<g>
		<path class="st0" d="M102.97,0.94c0.22,0.12,0.39,0.3,0.51,0.51c0.12,0.22,0.19,0.46,0.19,0.73c0,0.27-0.06,0.51-0.19,0.73
			c-0.13,0.22-0.3,0.4-0.52,0.52c-0.22,0.13-0.46,0.19-0.72,0.19c-0.26,0-0.5-0.06-0.72-0.19c-0.22-0.13-0.39-0.3-0.51-0.52
			c-0.12-0.22-0.19-0.46-0.19-0.72c0-0.26,0.06-0.5,0.19-0.72c0.12-0.22,0.3-0.39,0.51-0.52c0.22-0.13,0.46-0.19,0.72-0.19
			C102.51,0.76,102.75,0.82,102.97,0.94z M102.84,3.24c0.18-0.11,0.32-0.26,0.43-0.44c0.1-0.19,0.16-0.39,0.16-0.62
			c0-0.22-0.05-0.43-0.15-0.61c-0.1-0.18-0.24-0.33-0.42-0.43c-0.18-0.11-0.38-0.16-0.61-0.16c-0.23,0-0.43,0.05-0.61,0.16
			c-0.18,0.11-0.33,0.25-0.43,0.44c-0.1,0.18-0.15,0.39-0.15,0.61c0,0.22,0.05,0.43,0.15,0.61c0.1,0.18,0.25,0.33,0.43,0.44
			c0.18,0.11,0.38,0.16,0.61,0.16C102.46,3.4,102.66,3.35,102.84,3.24z M102.89,2.25c-0.06,0.08-0.13,0.15-0.24,0.19l0.35,0.55
			h-0.35l-0.31-0.49h-0.04h-0.32v0.49h-0.34v-1.6h0.66c0.21,0,0.37,0.05,0.49,0.15c0.12,0.1,0.18,0.24,0.18,0.41
			C102.98,2.07,102.95,2.17,102.89,2.25z M101.99,2.23h0.3c0.11,0,0.2-0.03,0.26-0.08c0.06-0.05,0.09-0.12,0.09-0.21
			c0-0.09-0.03-0.16-0.09-0.21c-0.06-0.05-0.15-0.07-0.26-0.07h-0.3V2.23z"/>
	</g>
	<polygon class="st0" points="45.4,7.87 45.4,14.66 25.92,14.66 25.92,0.76 32.72,0.76 32.72,7.87 	"/>
	<path class="st0" d="M20.82,0.76l0,4.68c0,0.24,0.19,0.43,0.43,0.43h3.45V0.76H20.82z"/>
</g>
</svg>
