<?xml version="1.0" encoding="utf-8"?>
<!-- Generator: Adobe Illustrator 24.1.3, SVG Export Plug-In . SVG Version: 6.00 Build 0)  -->
<svg version="1.1" id="Camada_1" xmlns="http://www.w3.org/2000/svg" xmlns:xlink="http://www.w3.org/1999/xlink" x="0px" y="0px"
	 viewBox="0 0 105 28" style="enable-background:new 0 0 105 28;" xml:space="preserve">
<style type="text/css">
	.st0{fill:#E00C19;}
	.st1{fill:#BC1824;}
	.st2{fill:#E20613;}
</style>
<g>
	<g>
		<g>
			<rect x="31.11" y="21.14" class="st0" width="3.68" height="3.85"/>
		</g>
		<polygon class="st0" points="41.66,17.46 41.66,21.14 31.11,21.14 31.11,13.6 34.79,13.6 34.79,17.46 		"/>
		<rect x="37.98" y="21.14" class="st0" width="3.68" height="3.85"/>
	</g>
	<g>
		<path class="st0" d="M44.43,2.81h-0.19c-1.05,0-1.91-0.85-1.91-1.91V0.04h2.1V2.81z"/>
		<path class="st0" d="M41.66,5.31v9.97l-3.68,0V5.43c0-0.04,0-0.07,0-0.11c0-0.23-0.03-0.44-0.07-0.63
			c-0.2-0.64-0.79-1.1-1.49-1.11c-0.71,0.05-1.21,0.43-1.46,1.08C34.9,4.82,34.85,5,34.83,5.19c-0.01,0.06-0.02,0.12-0.02,0.19
			c-0.01,0.11-0.02,0.22-0.02,0.34v5.7h-3.68V5.31c0-1.93,1.04-3.62,2.59-4.54c0.79-0.47,1.7-0.74,2.68-0.74
			c0.83,0,1.62,0.19,2.32,0.54C40.45,1.44,41.66,3.24,41.66,5.31z"/>
	</g>
	<path class="st0" d="M59.66,13.6c-0.98,0-1.9,0.27-2.68,0.74c-1.55,0.92-2.59,2.61-2.59,4.54v6.12h3.68v-5.7
		c0-0.12,0-0.23,0.02-0.34c0.01-0.07,0.02-0.13,0.02-0.19c0.03-0.2,0.07-0.38,0.14-0.54c0.24-0.63,0.73-1.01,1.42-1.07L59.66,13.6
		C59.66,13.6,59.66,13.6,59.66,13.6z"/>
	<g>
		<path class="st0" d="M66.03,13.6c-3.15,0-5.69,2.55-5.69,5.69c0,3.15,2.55,5.69,5.69,5.69c3.14,0,5.69-2.55,5.69-5.69
			C71.72,16.15,69.17,13.6,66.03,13.6z M66.03,21.45c-1.19,0-2.16-0.97-2.16-2.16c0-1.19,0.97-2.16,2.16-2.16
			c1.19,0,2.16,0.97,2.16,2.16C68.18,20.48,67.22,21.45,66.03,21.45z"/>
		<g>
			<path class="st1" d="M68.18,19.29c0,2.38,1.46,4.42,3.54,5.27c0.66,0.27,1.39,0.42,2.16,0.42h0.02v-3.54h-0.02
				c-1.19,0-2.16-0.97-2.16-2.16H68.18z"/>
		</g>
	</g>
	<g>
		<path class="st0" d="M48.02,13.6c-3.15,0-5.69,2.55-5.69,5.69c0,3.15,2.55,5.69,5.69,5.69c3.14,0,5.69-2.55,5.69-5.69
			C53.72,16.15,51.17,13.6,48.02,13.6z M48.02,21.45c-1.19,0-2.16-0.97-2.16-2.16c0-1.19,0.97-2.16,2.16-2.16
			c1.19,0,2.16,0.97,2.16,2.16C50.18,20.49,49.21,21.45,48.02,21.45z"/>
		<path class="st2" d="M48.03,26.18c0.83,0,1.61-0.19,2.3-0.53l-2.3,2.3l-2.3-2.3C46.42,25.99,47.2,26.18,48.03,26.18z"/>
	</g>
	<g>
		<path d="M72.86,13.7c0.12,0.07,0.21,0.16,0.28,0.28c0.07,0.12,0.1,0.25,0.1,0.39c0,0.14-0.03,0.28-0.1,0.4
			c-0.07,0.12-0.16,0.21-0.28,0.28c-0.12,0.07-0.25,0.1-0.39,0.1c-0.14,0-0.27-0.03-0.39-0.1c-0.12-0.07-0.21-0.16-0.28-0.28
			c-0.07-0.12-0.1-0.25-0.1-0.39c0-0.14,0.03-0.27,0.1-0.39c0.07-0.12,0.16-0.21,0.28-0.28c0.12-0.07,0.25-0.1,0.39-0.1
			C72.61,13.6,72.74,13.64,72.86,13.7z M72.79,14.95c0.1-0.06,0.18-0.14,0.23-0.24c0.06-0.1,0.08-0.21,0.08-0.33
			c0-0.12-0.03-0.23-0.08-0.33c-0.06-0.1-0.13-0.18-0.23-0.23c-0.1-0.06-0.21-0.09-0.33-0.09c-0.12,0-0.23,0.03-0.33,0.09
			c-0.1,0.06-0.18,0.14-0.23,0.24c-0.06,0.1-0.08,0.21-0.08,0.33c0,0.12,0.03,0.23,0.08,0.33c0.06,0.1,0.13,0.18,0.23,0.24
			c0.1,0.06,0.21,0.09,0.33,0.09C72.58,15.04,72.69,15.01,72.79,14.95z M72.82,14.41c-0.03,0.05-0.07,0.08-0.13,0.1l0.19,0.3h-0.19
			l-0.17-0.26H72.5h-0.17v0.26h-0.19v-0.87h0.36c0.11,0,0.2,0.03,0.26,0.08c0.06,0.05,0.1,0.13,0.1,0.22
			C72.86,14.31,72.84,14.37,72.82,14.41z M72.33,14.4h0.16c0.06,0,0.11-0.01,0.14-0.04c0.03-0.03,0.05-0.06,0.05-0.11
			c0-0.05-0.02-0.09-0.05-0.11s-0.08-0.04-0.14-0.04h-0.16V14.4z"/>
	</g>
</g>
</svg>
