<?xml version="1.0" encoding="utf-8"?>
<!-- Generator: Adobe Illustrator 24.1.3, SVG Export Plug-In . SVG Version: 6.00 Build 0)  -->
<svg version="1.1" id="Camada_1" xmlns="http://www.w3.org/2000/svg" xmlns:xlink="http://www.w3.org/1999/xlink" x="0px" y="0px"
	 viewBox="0 0 144 144" style="enable-background:new 0 0 144 144;" xml:space="preserve">
<style type="text/css">
	.st0{fill:#E00C19;}
</style>
<g>
	<path class="st0" d="M119.69,15.93h-8.07c-2.24,0-4.06-1.82-4.06-4.06V-0.04h12.13V15.93z"/>
	<path class="st0" d="M119.69,15.93h-8.07c-2.24,0-4.06-1.82-4.06-4.06V-0.04h12.13V15.93z"/>
	<g>
		<polygon class="st0" points="103.28,100.54 103.28,144.05 82.01,144.05 82.01,121.8 63.59,121.8 63.59,144.05 42.31,144.05 
			42.31,78.28 63.59,78.28 63.59,100.54 		"/>
	</g>
	<path class="st0" d="M82.01,30.48V88h21.27V30.43c0-3.51-0.59-6.88-1.68-10.01C98.45,11.37,91.17,4.27,82.01,1.37
		c-2.9-0.92-5.99-1.42-9.2-1.42c-3.21,0-6.31,0.5-9.22,1.42c-9.14,2.9-16.42,10-19.56,19.04c-1.09,3.14-1.68,6.51-1.68,10.01v35.24
		h21.25V30.25v-1.18c0.3-4.83,4.32-8.65,9.22-8.65c4.83,0,8.79,3.7,9.2,8.42V30.48z"/>
</g>
</svg>
